<svg xmlns="http://www.w3.org/2000/svg" xmlns:xlink="http://www.w3.org/1999/xlink" width="176" height="51.699" viewBox="0 0 176 51.699">
  <defs>
    <linearGradient id="linear-gradient" x1="0.915" y1="-2.293" x2="-0.377" y2="-2.966" gradientUnits="objectBoundingBox">
      <stop offset="0" stop-color="#00a0ff"/>
      <stop offset="0.007" stop-color="#00a1ff"/>
      <stop offset="0.26" stop-color="#00beff"/>
      <stop offset="0.512" stop-color="#00d2ff"/>
      <stop offset="0.76" stop-color="#00dfff"/>
      <stop offset="1" stop-color="#00e3ff"/>
    </linearGradient>
    <linearGradient id="linear-gradient-2" x1="1.076" y1="-9.013" x2="-1.305" y2="-9.013" gradientUnits="objectBoundingBox">
      <stop offset="0" stop-color="#ffe000"/>
      <stop offset="0.409" stop-color="#ffbd00"/>
      <stop offset="0.775" stop-color="orange"/>
      <stop offset="1" stop-color="#ff9c00"/>
    </linearGradient>
    <linearGradient id="linear-gradient-3" x1="0.861" y1="-6.503" x2="-0.498" y2="-8.283" gradientUnits="objectBoundingBox">
      <stop offset="0" stop-color="#ff3a44"/>
      <stop offset="1" stop-color="#c31162"/>
    </linearGradient>
    <linearGradient id="linear-gradient-4" x1="-0.186" y1="-3.781" x2="0.421" y2="-4.576" gradientUnits="objectBoundingBox">
      <stop offset="0" stop-color="#32a071"/>
      <stop offset="0.068" stop-color="#2da771"/>
      <stop offset="0.476" stop-color="#15cf74"/>
      <stop offset="0.801" stop-color="#06e775"/>
      <stop offset="1" stop-color="#00f076"/>
    </linearGradient>
  </defs>
  <g id="Btn_google_play" data-name="Btn google play" transform="translate(-5.523 -125.519)">
    <g id="Groupe_97" data-name="Groupe 97" transform="translate(5.523 125.519)">
      <path id="Tracé_161" data-name="Tracé 161" d="M175,177.219H12.041a6.51,6.51,0,0,1-6.518-6.462V131.981a6.51,6.51,0,0,1,6.518-6.462H175a6.51,6.51,0,0,1,6.519,6.462v38.775A6.51,6.51,0,0,1,175,177.219Z" transform="translate(-5.523 -125.519)"/>
      <g id="Groupe_94" data-name="Groupe 94">
        <g id="Groupe_93" data-name="Groupe 93">
          <path id="Tracé_162" data-name="Tracé 162" d="M175,126.553a5.458,5.458,0,0,1,5.475,5.428v38.775A5.458,5.458,0,0,1,175,176.185H12.041a5.459,5.459,0,0,1-5.475-5.428V131.981a5.459,5.459,0,0,1,5.475-5.428H175m0-1.034H12.041a6.51,6.51,0,0,0-6.518,6.462v38.775a6.509,6.509,0,0,0,6.518,6.462H175a6.509,6.509,0,0,0,6.519-6.462V131.981A6.51,6.51,0,0,0,175,125.519Z" transform="translate(-5.523 -125.519)" fill="#a6a6a6"/>
        </g>
      </g>
      <path id="Tracé_163" data-name="Tracé 163" d="M89.912,151.8a5.5,5.5,0,1,0,5.566,5.5A5.443,5.443,0,0,0,89.912,151.8Zm0,8.83a3.339,3.339,0,1,1,3.13-3.333A3.194,3.194,0,0,1,89.912,160.634ZM77.77,151.8a5.5,5.5,0,1,0,5.566,5.5A5.443,5.443,0,0,0,77.77,151.8Zm0,8.83A3.338,3.338,0,1,1,80.9,157.3,3.193,3.193,0,0,1,77.77,160.634Zm-14.443-7.143v2.333h5.629a4.847,4.847,0,0,1-1.281,2.936,5.785,5.785,0,0,1-4.348,1.708,6.205,6.205,0,0,1,0-12.411,6.025,6.025,0,0,1,4.243,1.666l1.659-1.646a8.242,8.242,0,0,0-5.9-2.353,8.54,8.54,0,1,0,0,17.075,7.9,7.9,0,0,0,6.006-2.395,7.662,7.662,0,0,0,2.038-5.455,7.545,7.545,0,0,0-.126-1.458Zm59.068,1.811a5.145,5.145,0,0,0-4.747-3.5,5.244,5.244,0,0,0-5.229,5.5,5.4,5.4,0,0,0,5.5,5.5,5.525,5.525,0,0,0,4.62-2.436l-1.89-1.249a3.174,3.174,0,0,1-2.731,1.52,2.824,2.824,0,0,1-2.689-1.666l7.415-3.04Zm-7.56,1.833a3.026,3.026,0,0,1,2.9-3.207,2.149,2.149,0,0,1,2.059,1.166Zm-6.028,5.33h2.436V146.307h-2.436Zm-3.991-9.433h-.084a3.858,3.858,0,0,0-2.919-1.229,5.5,5.5,0,0,0,0,10.994,3.8,3.8,0,0,0,2.919-1.249h.084v.791c0,2.1-1.134,3.228-2.962,3.228a3.065,3.065,0,0,1-2.793-1.957l-2.121.875a5.28,5.28,0,0,0,4.914,3.249c2.857,0,5.272-1.666,5.272-5.726v-9.87h-2.311Zm-2.793,7.6a3.342,3.342,0,0,1,0-6.664,3.355,3.355,0,0,1,0,6.664Zm31.785-14.327h-5.83v16.159h2.433v-6.122h3.4a5.028,5.028,0,1,0,0-10.037Zm.063,7.788h-3.46v-5.539h3.46a2.77,2.77,0,1,1,0,5.539Zm15.033-2.321a4.574,4.574,0,0,0-4.34,2.473l2.159.894a2.309,2.309,0,0,1,2.222-1.184,2.336,2.336,0,0,1,2.558,2.078v.166a5.427,5.427,0,0,0-2.536-.624c-2.328,0-4.7,1.268-4.7,3.638,0,2.162,1.907,3.555,4.047,3.555a3.438,3.438,0,0,0,3.1-1.58h.084v1.247h2.349v-6.2C153.853,153.376,151.693,151.775,148.9,151.775Zm-.293,8.856c-.8,0-1.908-.395-1.908-1.372,0-1.248,1.384-1.726,2.579-1.726a4.36,4.36,0,0,1,2.222.541A2.94,2.94,0,0,1,148.611,160.631Zm13.8-8.5-2.788,7.005h-.084l-2.894-7.005h-2.62l4.34,9.791-2.474,5.446h2.538l6.688-15.237ZM140.5,162.466h2.432V146.307H140.5Z" transform="translate(-1.084 -123.691)" fill="#fff"/>
      <g id="Groupe_96" data-name="Groupe 96" transform="translate(13.001 9.229)">
        <path id="Tracé_164" data-name="Tracé 164" d="M18.048,134.461a2.58,2.58,0,0,0-.6,1.817v28.585a2.577,2.577,0,0,0,.6,1.816l.1.094L34.3,150.758v-.377L18.145,134.367Z" transform="translate(-17.445 -133.947)" fill="url(#linear-gradient)"/>
        <path id="Tracé_165" data-name="Tracé 165" d="M38.282,155.212l-5.384-5.34v-.377l5.385-5.339.122.069,6.378,3.594c1.822,1.026,1.822,2.7,0,3.732L38.4,155.144Z" transform="translate(-16.047 -133.062)" fill="url(#linear-gradient-2)"/>
        <path id="Tracé_166" data-name="Tracé 166" d="M39.753,154.685l-5.507-5.46L18,165.334a2.135,2.135,0,0,0,2.71.08l19.045-10.728" transform="translate(-17.395 -132.603)" fill="url(#linear-gradient-3)"/>
        <path id="Tracé_167" data-name="Tracé 167" d="M39.753,145.145,20.708,134.417A2.136,2.136,0,0,0,18,134.5L34.246,150.6Z" transform="translate(-17.395 -133.982)" fill="url(#linear-gradient-4)"/>
        <g id="Groupe_95" data-name="Groupe 95" transform="translate(0 21.962)">
          <path id="Tracé_168" data-name="Tracé 168" d="M39.631,154.122,20.708,164.781a2.186,2.186,0,0,1-2.612.013h0l-.1.1h0l.1.093h0a2.187,2.187,0,0,0,2.612-.014l19.045-10.728Z" transform="translate(-17.395 -154.122)" opacity="0.2" style="isolation: isolate"/>
          <path id="Tracé_169" data-name="Tracé 169" d="M18.048,163.976a2.58,2.58,0,0,1-.6-1.817v.19a2.579,2.579,0,0,0,.6,1.816l.1-.1Z" transform="translate(-17.445 -153.395)" opacity="0.12" style="isolation: isolate"/>
        </g>
        <path id="Tracé_170" data-name="Tracé 170" d="M44.336,150.9l-6.5,3.663.122.12,6.378-3.593a2.271,2.271,0,0,0,1.367-1.866h0A2.41,2.41,0,0,1,44.336,150.9Z" transform="translate(-15.6 -132.603)" opacity="0.12" style="isolation: isolate"/>
        <path id="Tracé_171" data-name="Tracé 171" d="M20.758,134.606l25.423,14.321a2.413,2.413,0,0,1,1.367,1.677h0a2.268,2.268,0,0,0-1.367-1.866L20.758,134.417c-1.822-1.026-3.313-.173-3.313,1.9v.189C17.445,134.432,18.936,133.58,20.758,134.606Z" transform="translate(-17.445 -133.982)" fill="#fff" opacity="0.25" style="isolation: isolate"/>
      </g>
    </g>
    <g id="Groupe_98" data-name="Groupe 98" transform="translate(59.337 134.393)">
      <path id="Tracé_172" data-name="Tracé 172" d="M54.872,141.57v-7.754h2.393a3.909,3.909,0,0,1,2.885,1.077,4.167,4.167,0,0,1,0,5.6,3.909,3.909,0,0,1-2.885,1.077Zm1-.953h1.388a2.949,2.949,0,0,0,2.146-.769,3.319,3.319,0,0,0,0-4.305,2.939,2.939,0,0,0-2.146-.774H55.876Z" transform="translate(-54.872 -133.643)" fill="#fff" stroke="#fff" stroke-miterlimit="10" stroke-width="0.238"/>
      <path id="Tracé_173" data-name="Tracé 173" d="M62,141.57v-7.754H63v7.754Z" transform="translate(-54.227 -133.643)" fill="#fff" stroke="#fff" stroke-miterlimit="10" stroke-width="0.238"/>
      <path id="Tracé_174" data-name="Tracé 174" d="M66.811,141.758a2.941,2.941,0,0,1-1.666-.552,2.555,2.555,0,0,1-1.065-1.55l.918-.367a2.078,2.078,0,0,0,.671,1.077,1.707,1.707,0,0,0,1.143.438,1.838,1.838,0,0,0,1.12-.341,1.086,1.086,0,0,0,.463-.926,1.184,1.184,0,0,0-.463-1,4.842,4.842,0,0,0-1.469-.655,3.923,3.923,0,0,1-1.574-.84,1.745,1.745,0,0,1-.537-1.315,1.918,1.918,0,0,1,.667-1.451,2.456,2.456,0,0,1,1.736-.617,2.529,2.529,0,0,1,1.617.493,2.271,2.271,0,0,1,.808,1.077l-.916.378a1.35,1.35,0,0,0-.486-.682,1.719,1.719,0,0,0-1.989.005.972.972,0,0,0-.41.8.9.9,0,0,0,.377.731,3.618,3.618,0,0,0,1.109.537,9.422,9.422,0,0,1,.967.358,4.316,4.316,0,0,1,.785.46,1.837,1.837,0,0,1,.6.715,2.3,2.3,0,0,1,.2.99,2.117,2.117,0,0,1-.234,1.008,1.892,1.892,0,0,1-.624.7,3.147,3.147,0,0,1-1.752.53Z" transform="translate(-54.039 -133.657)" fill="#fff" stroke="#fff" stroke-miterlimit="10" stroke-width="0.238"/>
      <path id="Tracé_175" data-name="Tracé 175" d="M71.305,141.57h-1v-7.754h2.666a2.485,2.485,0,0,1,1.72.654,2.24,2.24,0,0,1,0,3.3,2.481,2.481,0,0,1-1.72.655H71.305Zm0-4.095h1.683A1.3,1.3,0,0,0,74,137.055a1.328,1.328,0,0,0,0-1.864,1.3,1.3,0,0,0-1.016-.422H71.305Z" transform="translate(-53.476 -133.643)" fill="#fff" stroke="#fff" stroke-miterlimit="10" stroke-width="0.238"/>
      <path id="Tracé_176" data-name="Tracé 176" d="M82.588,140.583a4.086,4.086,0,0,1-5.736,0,4.165,4.165,0,0,1,0-5.75,4.074,4.074,0,0,1,5.73,0,4.149,4.149,0,0,1,.005,5.746Zm-4.993-.649a3.026,3.026,0,0,0,4.25,0,3.286,3.286,0,0,0,0-4.452,3.026,3.026,0,0,0-4.25,0,3.289,3.289,0,0,0,0,4.452Z" transform="translate(-52.987 -133.657)" fill="#fff" stroke="#fff" stroke-miterlimit="10" stroke-width="0.238"/>
      <path id="Tracé_177" data-name="Tracé 177" d="M84.367,141.57v-7.754h1.224l3.8,6.033h.044l-.044-1.5v-4.537H90.4v7.754H89.349l-3.978-6.325h-.043l.043,1.5v4.83Z" transform="translate(-52.203 -133.643)" fill="#fff" stroke="#fff" stroke-miterlimit="10" stroke-width="0.238"/>
      <path id="Tracé_178" data-name="Tracé 178" d="M91.54,141.57v-7.754h1v7.754Z" transform="translate(-51.554 -133.643)" fill="#fff" stroke="#fff" stroke-miterlimit="10" stroke-width="0.238"/>
      <path id="Tracé_179" data-name="Tracé 179" d="M94.1,141.57v-7.754h2.829a2.31,2.31,0,0,1,1.591.6,1.946,1.946,0,0,1,.672,1.51,1.682,1.682,0,0,1-.29.975,1.81,1.81,0,0,1-.771.64v.043a1.99,1.99,0,0,1,.952.672,1.753,1.753,0,0,1,.372,1.1,2.028,2.028,0,0,1-.706,1.581,2.422,2.422,0,0,1-1.666.628Zm1-4.43h1.824a1.182,1.182,0,0,0,.924-2,1.124,1.124,0,0,0-.879-.369H95.108Zm0,3.476H97.13a1.2,1.2,0,0,0,.94-.4,1.277,1.277,0,0,0,.36-.877,1.243,1.243,0,0,0-.372-.871,1.269,1.269,0,0,0-.972-.4H95.108Z" transform="translate(-51.322 -133.643)" fill="#fff" stroke="#fff" stroke-miterlimit="10" stroke-width="0.238"/>
      <path id="Tracé_180" data-name="Tracé 180" d="M100.256,141.57v-7.754h1v6.8h3.386v.953Z" transform="translate(-50.766 -133.643)" fill="#fff" stroke="#fff" stroke-miterlimit="10" stroke-width="0.238"/>
      <path id="Tracé_181" data-name="Tracé 181" d="M110.012,134.769H106.45v2.458h3.211v.932H106.45v2.458h3.562v.953h-4.567v-7.754h4.567Z" transform="translate(-50.296 -133.643)" fill="#fff" stroke="#fff" stroke-miterlimit="10" stroke-width="0.238"/>
      <path id="Tracé_182" data-name="Tracé 182" d="M115.43,141.758a2.941,2.941,0,0,1-1.665-.552,2.555,2.555,0,0,1-1.065-1.55l.918-.367a2.077,2.077,0,0,0,.671,1.077,1.706,1.706,0,0,0,1.142.438,1.839,1.839,0,0,0,1.121-.341,1.086,1.086,0,0,0,.463-.926,1.184,1.184,0,0,0-.463-1,4.842,4.842,0,0,0-1.469-.655,3.915,3.915,0,0,1-1.574-.84,1.745,1.745,0,0,1-.537-1.315,1.918,1.918,0,0,1,.667-1.451,2.454,2.454,0,0,1,1.736-.617,2.529,2.529,0,0,1,1.617.493,2.271,2.271,0,0,1,.808,1.077l-.916.378a1.35,1.35,0,0,0-.486-.682,1.719,1.719,0,0,0-1.989.005.972.972,0,0,0-.41.8.9.9,0,0,0,.377.731,3.618,3.618,0,0,0,1.109.537,9.421,9.421,0,0,1,.967.358,4.354,4.354,0,0,1,.785.46,1.825,1.825,0,0,1,.6.715,2.284,2.284,0,0,1,.2.99,2.117,2.117,0,0,1-.234,1.008,1.892,1.892,0,0,1-.624.7,3.147,3.147,0,0,1-1.753.53Z" transform="translate(-49.64 -133.657)" fill="#fff" stroke="#fff" stroke-miterlimit="10" stroke-width="0.238"/>
      <path id="Tracé_183" data-name="Tracé 183" d="M121.655,141.744a2.759,2.759,0,0,1-2.094-.844,3.082,3.082,0,0,1-.8-2.21v-4.873h1v4.917a2.209,2.209,0,0,0,.486,1.49,2.017,2.017,0,0,0,2.807,0,2.209,2.209,0,0,0,.486-1.49v-4.917h1.007v4.873a3.123,3.123,0,0,1-.782,2.215A2.747,2.747,0,0,1,121.655,141.744Z" transform="translate(-49.091 -133.643)" fill="#fff" stroke="#fff" stroke-miterlimit="10" stroke-width="0.238"/>
      <path id="Tracé_184" data-name="Tracé 184" d="M125.552,141.57v-7.754h2.666a2.483,2.483,0,0,1,1.72.654,2.217,2.217,0,0,1,.191,3.088,2.327,2.327,0,0,1-1.333.785l-.022.032,2.2,3.153v.043h-1.19l-2.109-3.141h-1.116v3.141Zm1-4.072h1.617a1.489,1.489,0,0,0,1.033-.39,1.268,1.268,0,0,0,.432-.985,1.361,1.361,0,0,0-.382-.932,1.3,1.3,0,0,0-1.016-.422h-1.684Z" transform="translate(-48.477 -133.643)" fill="#fff" stroke="#fff" stroke-miterlimit="10" stroke-width="0.238"/>
    </g>
  </g>
</svg>
