<svg id="Btn_app_store" data-name="Btn app store" xmlns="http://www.w3.org/2000/svg" width="175.93" height="55.626" viewBox="0 0 175.93 55.626">
  <g id="Groupe_20" data-name="Groupe 20">
    <path id="Tracé_72" data-name="Tracé 72" d="M162.677,0H13.26c-.51,0-1.014,0-1.523,0-.426,0-.848.011-1.278.018A18.543,18.543,0,0,0,7.672.266a9.346,9.346,0,0,0-2.644.872,8.918,8.918,0,0,0-2.25,1.64,8.693,8.693,0,0,0-1.64,2.254A9.214,9.214,0,0,0,.27,7.678a18.156,18.156,0,0,0-.249,2.784c-.013.427-.014.855-.021,1.281V43.888c.007.431.008.85.021,1.281A18.125,18.125,0,0,0,.27,47.953,9.175,9.175,0,0,0,1.139,50.6a8.621,8.621,0,0,0,1.64,2.245,8.737,8.737,0,0,0,2.25,1.64,9.3,9.3,0,0,0,2.644.876,18.728,18.728,0,0,0,2.787.246c.43.01.852.015,1.278.015.509,0,1.012,0,1.523,0H162.677c.5,0,1.008,0,1.507,0,.424,0,.858-.006,1.282-.015a18.455,18.455,0,0,0,2.781-.245,9.494,9.494,0,0,0,2.653-.878,8.737,8.737,0,0,0,2.25-1.64,8.925,8.925,0,0,0,1.642-2.245,9.171,9.171,0,0,0,.861-2.649,18.67,18.67,0,0,0,.259-2.783c.006-.432.006-.851.006-1.282.011-.506.011-1.008.011-1.521V13.261c0-.509,0-1.014-.011-1.519,0-.426,0-.854-.006-1.281a18.688,18.688,0,0,0-.259-2.784,9.168,9.168,0,0,0-.861-2.646A8.991,8.991,0,0,0,170.9,1.138a9.437,9.437,0,0,0-2.653-.872,18.1,18.1,0,0,0-2.781-.245c-.424-.007-.858-.015-1.282-.018-.5,0-1.007,0-1.507,0Z" fill="#a6a6a6"/>
    <path id="Tracé_73" data-name="Tracé 73" d="M11.4,54.068c-.424,0-.837-.006-1.257-.015a17.523,17.523,0,0,1-2.6-.227,8.169,8.169,0,0,1-2.3-.762A7.508,7.508,0,0,1,3.3,51.651a7.423,7.423,0,0,1-1.42-1.943,7.963,7.963,0,0,1-.755-2.3A17.253,17.253,0,0,1,.894,44.8c-.01-.293-.021-1.27-.021-1.27V11.4s.013-.961.021-1.243a17.181,17.181,0,0,1,.229-2.6A8.009,8.009,0,0,1,1.88,5.243,7.423,7.423,0,0,1,3.291,3.3a7.761,7.761,0,0,1,1.95-1.423,8.131,8.131,0,0,1,2.3-.757A17.652,17.652,0,0,1,10.149.892L11.4.875H163.836l1.27.018a17.135,17.135,0,0,1,2.585.225,8.3,8.3,0,0,1,2.324.762,7.78,7.78,0,0,1,3.358,3.365,8.04,8.04,0,0,1,.744,2.293,18.048,18.048,0,0,1,.242,2.624c0,.394,0,.818,0,1.238.011.521.011,1.018.011,1.519V42.025c0,.5,0,1-.011,1.495,0,.452,0,.866-.006,1.293a17.79,17.79,0,0,1-.238,2.577,7.983,7.983,0,0,1-.751,2.322,7.644,7.644,0,0,1-1.413,1.927,7.5,7.5,0,0,1-1.946,1.421,8.135,8.135,0,0,1-2.32.765,17.32,17.32,0,0,1-2.6.227c-.407.01-.834.015-1.249.015l-1.507,0Z" transform="translate(0.341 0.342)"/>
  </g>
  <g id="Groupe_22" data-name="Groupe 22" transform="translate(13.871 11.157)">
    <g id="_Group_" data-name=" Group " transform="translate(0 0.969)">
      <g id="_Group_2" data-name=" Group 2">
        <g id="_Group_3" data-name=" Group 3">
          <path id="_Path_" data-name=" Path " d="M30.553,22.773A6.881,6.881,0,0,1,33.829,17a7.046,7.046,0,0,0-5.55-3c-2.335-.245-4.6,1.4-5.789,1.4-1.213,0-3.044-1.374-5.018-1.332a7.392,7.392,0,0,0-6.22,3.792c-2.69,4.657-.684,11.5,1.893,15.265,1.289,1.843,2.8,3.9,4.767,3.828,1.929-.081,2.649-1.231,4.977-1.231,2.307,0,2.983,1.231,4.994,1.185,2.069-.035,3.374-1.852,4.618-3.713a15.24,15.24,0,0,0,2.111-4.3A6.65,6.65,0,0,1,30.553,22.773Z" transform="translate(-9.974 -6.668)" fill="#fff"/>
          <path id="_Path_2" data-name=" Path 2" d="M23.308,13.575A6.772,6.772,0,0,0,24.859,8.72,6.9,6.9,0,0,0,20.4,11.028,6.446,6.446,0,0,0,18.807,15.7,5.7,5.7,0,0,0,23.308,13.575Z" transform="translate(-6.529 -8.72)" fill="#fff"/>
        </g>
      </g>
    </g>
    <g id="_Group_4" data-name=" Group 4" transform="translate(33.103)">
      <g id="Groupe_21" data-name="Groupe 21">
        <path id="Tracé_74" data-name="Tracé 74" d="M36.388,17.033V9.907h-2.61V8.735h6.5V9.907h-2.6v7.126Z" transform="translate(-33.778 -7.745)" fill="#fff"/>
        <path id="Tracé_75" data-name="Tracé 75" d="M44.347,15.62a2.545,2.545,0,0,1-2.715,1.812,2.845,2.845,0,0,1-2.918-2.769,2.882,2.882,0,0,1,.025-.464,2.888,2.888,0,0,1,2.48-3.246,2.857,2.857,0,0,1,.409-.025c1.742,0,2.792,1.19,2.792,3.157v.431H40v.07a1.656,1.656,0,0,0,1.51,1.788c.051,0,.1.006.157.006a1.5,1.5,0,0,0,1.489-.759ZM40,13.6h3.162a1.511,1.511,0,0,0-1.395-1.619,1.28,1.28,0,0,0-.146,0A1.6,1.6,0,0,0,40,13.561V13.6Zm.884-3.6,1.444-1.979h1.449L42.161,10Z" transform="translate(-31.85 -8.023)" fill="#fff"/>
        <path id="Tracé_76" data-name="Tracé 76" d="M44.053,8.441h1.235v8.707H44.053Z" transform="translate(-29.764 -7.86)" fill="#fff"/>
        <path id="Tracé_77" data-name="Tracé 77" d="M51.79,15.62a2.543,2.543,0,0,1-2.713,1.812,2.847,2.847,0,0,1-2.919-2.769,2.732,2.732,0,0,1,.026-.464,2.884,2.884,0,0,1,2.887-3.271c1.743,0,2.794,1.19,2.794,3.157v.431H47.443v.07a1.656,1.656,0,0,0,1.51,1.788c.053,0,.1.006.157.006A1.5,1.5,0,0,0,50.6,15.62ZM47.443,13.6h3.162a1.509,1.509,0,0,0-1.395-1.619,1.28,1.28,0,0,0-.146,0,1.6,1.6,0,0,0-1.622,1.581Zm.886-3.6,1.444-1.979h1.449L49.606,10Z" transform="translate(-28.942 -8.023)" fill="#fff"/>
        <path id="Tracé_78" data-name="Tracé 78" d="M55.65,12.282a1.4,1.4,0,0,0-1.478-1.062c-1.035,0-1.667.793-1.667,2.128,0,1.357.638,2.168,1.667,2.168a1.362,1.362,0,0,0,1.478-1.03h1.2a2.451,2.451,0,0,1-2.674,2.135,2.882,2.882,0,0,1-2.94-3.272,2.856,2.856,0,0,1,2.452-3.208,2.783,2.783,0,0,1,.481-.024,2.473,2.473,0,0,1,2.681,2.167Z" transform="translate(-26.967 -7.21)" fill="#fff"/>
        <path id="Tracé_79" data-name="Tracé 79" d="M56.447,8.441h1.225v3.45h.1a1.928,1.928,0,0,1,1.909-1.121,2.062,2.062,0,0,1,2.172,1.947,2,2,0,0,1-.015.387v4.044H60.6V13.41c0-1-.466-1.507-1.339-1.507a1.465,1.465,0,0,0-1.578,1.339,1.49,1.49,0,0,0,0,.249v3.657H56.447Z" transform="translate(-24.922 -7.86)" fill="#fff"/>
        <path id="Tracé_80" data-name="Tracé 80" d="M61.439,14.723c0-1.126.84-1.777,2.329-1.869l1.7-.1v-.541c0-.662-.437-1.035-1.282-1.035-.69,0-1.168.253-1.3.7h-1.2c.127-1.075,1.139-1.765,2.559-1.765,1.57,0,2.455.782,2.455,2.1V16.5H65.505v-.88h-.1a2.108,2.108,0,0,1-1.882.983,1.89,1.89,0,0,1-2.076-1.685C61.443,14.85,61.44,14.786,61.439,14.723Zm4.026-.535v-.523l-1.53.1c-.862.058-1.253.352-1.253.9s.49.891,1.161.891a1.476,1.476,0,0,0,1.617-1.32l0-.05Z" transform="translate(-22.972 -7.207)" fill="#fff"/>
        <path id="Tracé_81" data-name="Tracé 81" d="M66.61,10.229H67.8v.96h.093a1.7,1.7,0,0,1,1.691-1.064,2.611,2.611,0,0,1,.551.051V11.4a3.38,3.38,0,0,0-.69-.075,1.468,1.468,0,0,0-1.592,1.331,1.208,1.208,0,0,0-.006.142v3.7H66.61Z" transform="translate(-20.952 -7.203)" fill="#fff"/>
        <path id="Tracé_82" data-name="Tracé 82" d="M70.03,17.117H71.3c.1.455.627.748,1.46.748,1.03,0,1.64-.49,1.64-1.317v-1.2H74.3A2.108,2.108,0,0,1,72.371,16.4c-1.6,0-2.587-1.235-2.587-3.111,0-1.909,1-3.162,2.6-3.162a2.17,2.17,0,0,1,1.966,1.1h.1v-1h1.185v6.314c0,1.432-1.122,2.34-2.893,2.34C71.175,18.883,70.162,18.18,70.03,17.117Zm4.389-3.835c0-1.247-.645-2.047-1.7-2.047s-1.66.8-1.66,2.047.6,2.047,1.66,2.047,1.7-.793,1.7-2.047Z" transform="translate(-19.712 -7.203)" fill="#fff"/>
        <path id="Tracé_83" data-name="Tracé 83" d="M80.794,14.8a2.543,2.543,0,0,1-2.713,1.812,2.844,2.844,0,0,1-2.918-2.769,2.882,2.882,0,0,1,.025-.464,2.888,2.888,0,0,1,2.48-3.246,2.85,2.85,0,0,1,.407-.025c1.743,0,2.794,1.19,2.794,3.157V13.7H76.447v.07a1.657,1.657,0,0,0,1.512,1.788c.051,0,.1.006.157.006a1.5,1.5,0,0,0,1.489-.759Zm-4.347-2.018h3.164a1.511,1.511,0,0,0-1.395-1.619,1.3,1.3,0,0,0-.147,0,1.6,1.6,0,0,0-1.622,1.581v.042Z" transform="translate(-17.611 -7.207)" fill="#fff"/>
        <path id="Tracé_84" data-name="Tracé 84" d="M80.459,10.229h1.19v.96h.092a1.7,1.7,0,0,1,1.691-1.064,2.633,2.633,0,0,1,.552.051V11.4a3.39,3.39,0,0,0-.69-.075A1.469,1.469,0,0,0,81.7,12.652c0,.047-.006.095-.006.142v3.7H80.459Z" transform="translate(-15.542 -7.203)" fill="#fff"/>
        <path id="Tracé_85" data-name="Tracé 85" d="M86.2,14.013c0-1.979,1.017-3.232,2.6-3.232a2.066,2.066,0,0,1,1.92,1.1h.092V8.441h1.236v8.707H90.859v-.99h-.1A2.173,2.173,0,0,1,88.8,17.251C87.2,17.251,86.2,16,86.2,14.013Zm1.277,0c0,1.328.626,2.128,1.673,2.128s1.685-.811,1.685-2.122-.651-2.128-1.685-2.128-1.673.805-1.673,2.122Z" transform="translate(-13.3 -7.86)" fill="#fff"/>
        <path id="Tracé_86" data-name="Tracé 86" d="M91.6,14.723c0-1.126.84-1.777,2.329-1.869l1.7-.1v-.541c0-.662-.438-1.035-1.282-1.035-.69,0-1.168.253-1.306.7h-1.2c.127-1.075,1.138-1.765,2.559-1.765,1.57,0,2.455.782,2.455,2.1V16.5H95.668v-.88h-.1a2.11,2.11,0,0,1-1.882.983,1.892,1.892,0,0,1-2.078-1.685C91.606,14.85,91.6,14.786,91.6,14.723Zm4.026-.535v-.523l-1.53.1c-.862.058-1.253.352-1.253.9s.488.891,1.161.891a1.476,1.476,0,0,0,1.617-1.32l0-.05Z" transform="translate(-11.188 -7.207)" fill="#fff"/>
        <path id="Tracé_87" data-name="Tracé 87" d="M96.773,10.235h1.189v.994h.093a1.872,1.872,0,0,1,1.869-1.115,2.035,2.035,0,0,1,2.167,2.329V16.5h-1.235V12.753c0-1.007-.438-1.507-1.352-1.507a1.434,1.434,0,0,0-1.495,1.587V16.5H96.773Z" transform="translate(-9.168 -7.209)" fill="#fff"/>
        <path id="Tracé_88" data-name="Tracé 88" d="M104.347,10.112c1.407,0,2.328.655,2.449,1.759h-1.185c-.114-.46-.563-.754-1.264-.754s-1.214.328-1.214.816c0,.374.316.611,1,.766l1.04.241c1.19.277,1.748.789,1.748,1.709,0,1.178-1.1,1.966-2.594,1.966s-2.46-.673-2.571-1.783h1.238a1.271,1.271,0,0,0,1.363.782c.769,0,1.317-.345,1.317-.846,0-.374-.293-.615-.921-.765l-1.092-.253c-1.192-.282-1.742-.816-1.742-1.748C101.915,10.894,102.931,10.112,104.347,10.112Z" transform="translate(-7.223 -7.207)" fill="#fff"/>
      </g>
    </g>
  </g>
  <g id="Groupe_23" data-name="Groupe 23" transform="translate(48.949 24.837)">
    <path id="Tracé_89" data-name="Tracé 89" d="M35.2,18.067h2.587V35.336H35.2Z" transform="translate(-35.198 -17.779)" fill="#fff"/>
    <path id="Tracé_90" data-name="Tracé 90" d="M39.3,24.386l1.412-6.319h2.513l-1.711,6.319Z" transform="translate(-33.596 -17.779)" fill="#fff"/>
    <path id="Tracé_91" data-name="Tracé 91" d="M52.222,30.669H45.64l-1.581,4.667H41.271l6.236-17.269h2.9l6.234,17.269H53.8Zm-5.9-2.154H51.54l-2.571-7.576H48.9Z" transform="translate(-32.826 -17.779)" fill="#fff"/>
    <path id="Tracé_92" data-name="Tracé 92" d="M65.335,27.766c0,3.912-2.094,6.426-5.254,6.426a4.268,4.268,0,0,1-3.962-2.2h-.06v6.236H53.475V21.469h2.5v2.094h.049a4.464,4.464,0,0,1,4.008-2.226C63.228,21.337,65.335,23.863,65.335,27.766Zm-2.656,0c0-2.55-1.317-4.226-3.328-4.226-1.975,0-3.3,1.712-3.3,4.226,0,2.537,1.328,4.236,3.3,4.236C61.361,32,62.678,30.338,62.678,27.766Z" transform="translate(-28.058 -16.503)" fill="#fff"/>
    <path id="Tracé_93" data-name="Tracé 93" d="M75.3,27.766c0,3.912-2.094,6.426-5.254,6.426a4.268,4.268,0,0,1-3.962-2.2h-.06v6.236H63.439V21.469h2.5v2.094h.047A4.466,4.466,0,0,1,70,21.337C73.193,21.337,75.3,23.863,75.3,27.766Zm-2.656,0c0-2.55-1.317-4.226-3.326-4.226-1.975,0-3.3,1.712-3.3,4.226,0,2.537,1.328,4.236,3.3,4.236C71.325,32,72.642,30.338,72.642,27.766Z" transform="translate(-24.165 -16.503)" fill="#fff"/>
    <path id="Tracé_94" data-name="Tracé 94" d="M79.3,30.605c.192,1.713,1.855,2.837,4.129,2.837,2.178,0,3.745-1.124,3.745-2.669,0-1.339-.944-2.143-3.183-2.692l-2.238-.54c-3.171-.766-4.643-2.249-4.643-4.656,0-2.979,2.6-5.026,6.284-5.026,3.649,0,6.149,2.047,6.234,5.026H87.016c-.156-1.723-1.581-2.763-3.663-2.763s-3.506,1.053-3.506,2.584c0,1.221.909,1.94,3.136,2.489l1.9.467c3.543.839,5.015,2.263,5.015,4.788,0,3.231-2.573,5.254-6.667,5.254-3.83,0-6.415-1.976-6.582-5.1Z" transform="translate(-19.004 -17.86)" fill="#fff"/>
    <path id="Tracé_95" data-name="Tracé 95" d="M91.434,19.289v2.979h2.395v2.047H91.434v6.942c0,1.078.48,1.58,1.532,1.58a7.9,7.9,0,0,0,.85-.06v2.035a7,7,0,0,1-1.435.12c-2.549,0-3.543-.957-3.543-3.4V24.315H87.006V22.268h1.832V19.289Z" transform="translate(-14.959 -17.302)" fill="#fff"/>
    <path id="Tracé_96" data-name="Tracé 96" d="M92.908,27.771c0-3.962,2.332-6.451,5.972-6.451s5.973,2.489,5.973,6.451-2.311,6.451-5.973,6.451S92.908,31.743,92.908,27.771Zm9.31,0c0-2.719-1.245-4.322-3.339-4.322s-3.339,1.616-3.339,4.322c0,2.728,1.245,4.319,3.339,4.319s3.339-1.591,3.339-4.319Z" transform="translate(-12.653 -16.508)" fill="#fff"/>
    <path id="Tracé_97" data-name="Tracé 97" d="M103.029,21.469h2.464v2.143h.06a3,3,0,0,1,3.029-2.275,4.04,4.04,0,0,1,.886.1v2.417a3.575,3.575,0,0,0-1.161-.156,2.6,2.6,0,0,0-2.708,2.5,2.565,2.565,0,0,0,.014.4V34.06h-2.584Z" transform="translate(-8.699 -16.503)" fill="#fff"/>
    <path id="Tracé_98" data-name="Tracé 98" d="M119.417,30.368c-.348,2.286-2.574,3.855-5.421,3.855-3.663,0-5.937-2.455-5.937-6.391s2.286-6.511,5.828-6.511c3.482,0,5.674,2.393,5.674,6.211v.886h-8.893v.156a3.28,3.28,0,0,0,2.977,3.556,3.36,3.36,0,0,0,.41.011,2.849,2.849,0,0,0,2.906-1.772ZM110.68,26.61h6.294a3.027,3.027,0,0,0-2.854-3.192,2.183,2.183,0,0,0-.234,0,3.186,3.186,0,0,0-3.207,3.168Z" transform="translate(-6.734 -16.508)" fill="#fff"/>
  </g>
</svg>
