<svg xmlns="http://www.w3.org/2000/svg" xmlns:xlink="http://www.w3.org/1999/xlink" width="1758" height="2702" viewBox="0 0 1758 2702">
  <defs>
    <clipPath id="clip-path">
      <rect id="Rectangle_101" data-name="Rectangle 101" width="1758" height="2702" transform="translate(-193 55.624)" fill="#fff" stroke="#707070" stroke-width="1"/>
    </clipPath>
  </defs>
  <g id="Motifs" transform="translate(193 -55.624)" clip-path="url(#clip-path)">
    <g id="Motifs-2" data-name="Motifs" transform="translate(-175.729 56)">
      <g id="Groupe_14" data-name="Groupe 14" transform="translate(564.729 1449.691)">
        <path id="Tracé_66" data-name="Tracé 66" d="M-1746.333,5790.847c-47.364,0-91.892-19.329-125.384-54.426l87.834-92.046a51.562,51.562,0,0,0,37.549,16.3,51.562,51.562,0,0,0,37.549-16.3,56.657,56.657,0,0,0,15.553-39.35,56.66,56.66,0,0,0-15.553-39.351l87.834-92.046c33.491,35.1,51.935,81.76,51.935,131.4s-18.444,96.3-51.935,131.4S-1698.97,5790.847-1746.333,5790.847Z" transform="translate(1871.717 -5473.629)" fill="#2587db"/>
      </g>
      <g id="Groupe_15" data-name="Groupe 15" transform="translate(1790.079 558.615) rotate(90)">
        <path id="Tracé_66-2" data-name="Tracé 66" d="M150.777,347.351c-56.956,0-110.5-21.165-150.777-59.6L105.623,186.965a66.044,66.044,0,0,0,90.308,0,58.984,58.984,0,0,0,0-86.176L301.553,0c40.274,38.431,62.453,89.527,62.453,143.877s-22.179,105.446-62.453,143.877S207.733,347.351,150.777,347.351Z" transform="translate(0)" fill="#2587db"/>
      </g>
      <g id="Groupe_12" data-name="Groupe 12">
        <path id="Tracé_65" data-name="Tracé 65" d="M-2443.636,5085.481a276.321,276.321,0,0,1-112.665-23.874,287.919,287.919,0,0,1-91.946-64.943,303.312,303.312,0,0,1-61.972-96.356A313.967,313.967,0,0,1-2733,4782.241a313.968,313.968,0,0,1,22.781-118.067,303.307,303.307,0,0,1,61.972-96.356,287.919,287.919,0,0,1,91.946-64.943A276.337,276.337,0,0,1-2443.636,4479a276.335,276.335,0,0,1,112.665,23.874,287.923,287.923,0,0,1,91.947,64.943,303.307,303.307,0,0,1,61.972,96.356,313.972,313.972,0,0,1,22.781,118.067,313.971,313.971,0,0,1-22.781,118.067,303.312,303.312,0,0,1-61.972,96.356,287.923,287.923,0,0,1-91.947,64.943A276.32,276.32,0,0,1-2443.636,5085.481Zm0-394.053c-47.783,0-86.657,40.738-86.657,90.813s38.874,90.813,86.657,90.813,86.657-40.739,86.657-90.813S-2395.853,4691.428-2443.636,4691.428Z" transform="translate(2733 -4479)" fill="#f15d5b"/>
      </g>
      <g id="Groupe_13" data-name="Groupe 13" transform="translate(1151.199 2040.858)">
        <path id="Tracé_65-2" data-name="Tracé 65" d="M-2540.235,4883.018a184.078,184.078,0,0,1-75.053-15.9,191.78,191.78,0,0,1-61.252-43.263,202.055,202.055,0,0,1-41.283-64.189A209.151,209.151,0,0,1-2733,4681.008a209.157,209.157,0,0,1,15.176-78.653,202.067,202.067,0,0,1,41.283-64.188,191.811,191.811,0,0,1,61.252-43.263,184.077,184.077,0,0,1,75.053-15.9,184.077,184.077,0,0,1,75.054,15.9,191.811,191.811,0,0,1,61.252,43.263,202.072,202.072,0,0,1,41.284,64.188,209.166,209.166,0,0,1,15.176,78.653,209.16,209.16,0,0,1-15.176,78.653,202.06,202.06,0,0,1-41.284,64.189,191.78,191.78,0,0,1-61.252,43.263A184.078,184.078,0,0,1-2540.235,4883.018Zm0-262.505c-31.831,0-57.728,27.138-57.728,60.5s25.9,60.5,57.728,60.5,57.729-27.139,57.729-60.5S-2508.4,4620.513-2540.235,4620.513Z" transform="translate(2733 -4479)" fill="#f4d031"/>
      </g>
    </g>
  </g>
</svg>
