<?xml version="1.0" encoding="utf-8"?>
<!-- Generator: Adobe Illustrator 25.2.3, SVG Export Plug-In . SVG Version: 6.00 Build 0)  -->
<svg version="1.1" id="Calque_1" xmlns="http://www.w3.org/2000/svg" xmlns:xlink="http://www.w3.org/1999/xlink" x="0px" y="0px"
	 viewBox="0 0 1944 466" style="enable-background:new 0 0 1944 466;" xml:space="preserve">
<style type="text/css">
	.st0{fill:#2587DB;}
</style>
<g id="Groupe_100" transform="translate(478.321 341.052) rotate(-86)">
	<path id="Tracé_185" class="st0" d="M199.9,25.9c46.6,6.4,88.7,31.2,116.9,68.9l-99.2,74.8c-17.7-23.4-50.9-28.1-74.4-10.5
		c-23.4,17.7-28.1,50.9-10.5,74.4l0,0l-99.2,74.8C-25.3,230-9.7,118.8,68.5,59.9c0,0,0,0,0,0C106,31.5,153.3,19.2,199.9,25.9z"/>
</g>
<g id="Groupe_101" transform="matrix(0.208, 0.978, -0.978, 0.208, 1779.011, 78.203)">
	<path id="Tracé_186" class="st0" d="M235.2,28.4c46.6,6.4,88.7,31.2,116.9,68.9L252.9,172c-17.7-23.4-50.9-28.1-74.4-10.5
		c-23.4,17.7-28.1,50.9-10.5,74.4l0,0l-99.2,74.8C10,232.5,25.6,121.3,103.8,62.4c0,0,0,0,0,0C141.3,34,188.6,21.7,235.2,28.4z"/>
</g>
</svg>
