<svg xmlns="http://www.w3.org/2000/svg" width="161.031" height="74.828" viewBox="0 0 161.031 74.828">
  <g id="Logo" transform="translate(2422.951 -2483.316)">
    <g id="Groupe_6" data-name="Groupe 6" transform="translate(-2406.765 2549.988)">
      <path id="Tracé_32" data-name="Tracé 32" d="M-2367.455,2715.237v4.908h1.684v.825h-2.562v-5.734Z" transform="translate(2368.333 -2713.183)"/>
      <path id="Tracé_33" data-name="Tracé 33" d="M-2353.743,2716.062h-2.286v1.453h2.218v.824h-2.218v1.805h2.286v.825h-3.164v-5.734h3.164Z" transform="translate(2360.292 -2713.183)"/>
      <path id="Tracé_34" data-name="Tracé 34" d="M-2332.057,2716.333a2.233,2.233,0,0,0-1.555-.636,2.048,2.048,0,0,0-2.089,2.183,2.07,2.07,0,0,0,2.1,2.149,2.275,2.275,0,0,0,1.547-.662v1.04a3.134,3.134,0,0,1-1.573.429,2.874,2.874,0,0,1-2.029-.791,2.811,2.811,0,0,1-.92-2.166,3,3,0,0,1,.92-2.243,2.838,2.838,0,0,1,2.072-.748,2.721,2.721,0,0,1,1.53.413Z" transform="translate(2345.988 -2712.938)"/>
      <path id="Tracé_35" data-name="Tracé 35" d="M-2316.792,2715.237v5.734h-.877v-5.734Z" transform="translate(2332.682 -2713.183)"/>
      <path id="Tracé_36" data-name="Tracé 36" d="M-2310.073,2720.052v-6.12l4.161,4.358v-3.972h.877v6.086l-4.161-4.358v4.006Z" transform="translate(2327.337 -2712.264)"/>
      <path id="Tracé_37" data-name="Tracé 37" d="M-2285.275,2711.184h-2.287v1.453h2.218v.825h-2.218v1.805h2.287v.825h-3.164v-5.734h3.164Zm-2.252-1.685,1.186-1.194.739.515-1.513,1.023Z" transform="translate(2312.114 -2708.304)"/>
      <path id="Tracé_38" data-name="Tracé 38" d="M-2274.518,2719.949l1.2-6.163,1.995,4.453,2.011-4.453,1.083,6.163h-.893l-.585-3.455-1.668,3.721-1.65-3.73-.6,3.464Z" transform="translate(2302.318 -2712.161)"/>
      <path id="Tracé_39" data-name="Tracé 39" d="M-2247.412,2718.79h-2.449l-.628,1.384h-.946l2.854-6.069,2.716,6.069h-.946Zm-.353-.826-.851-1.942-.885,1.942Z" transform="translate(2286.076 -2712.386)"/>
      <path id="Tracé_40" data-name="Tracé 40" d="M-2219.788,2720.408a2.86,2.86,0,0,1-1.608.429,2.9,2.9,0,0,1-2.983-2.974,2.909,2.909,0,0,1,2.983-2.974,2.914,2.914,0,0,1,2.983,2.974,2.919,2.919,0,0,1-.791,2.054l.929.92h-1.083Zm-.008-1.083a2.071,2.071,0,0,0,.506-1.461,2.052,2.052,0,0,0-2.106-2.166,2.052,2.052,0,0,0-2.106,2.166,2.052,2.052,0,0,0,2.106,2.166,2.062,2.062,0,0,0,.988-.224l-1.358-1.35h1.092Z" transform="translate(2267.037 -2712.938)"/>
      <path id="Tracé_41" data-name="Tracé 41" d="M-2199.664,2715.237v3.455a2,2,0,0,0,.18.988,1.254,1.254,0,0,0,1.066.594,1.253,1.253,0,0,0,1.066-.594,2,2,0,0,0,.181-.988v-3.455h.877v3.688a2.12,2.12,0,0,1-.533,1.487,2.089,2.089,0,0,1-1.59.671,2.092,2.092,0,0,1-1.591-.671,2.123,2.123,0,0,1-.533-1.487v-3.688Z" transform="translate(2250.263 -2713.183)"/>
      <path id="Tracé_42" data-name="Tracé 42" d="M-2180.7,2715.237v5.734h-.877v-5.734Z" transform="translate(2236.917 -2713.183)"/>
      <path id="Tracé_43" data-name="Tracé 43" d="M-2168.479,2715.237l1.6,4,1.6-4h.946l-2.544,6.1-2.544-6.1Z" transform="translate(2228.367 -2713.183)"/>
      <path id="Tracé_44" data-name="Tracé 44" d="M-2145.654,2717.863a2.908,2.908,0,0,1-2.982,2.974,2.909,2.909,0,0,1-2.983-2.974,2.909,2.909,0,0,1,2.983-2.974A2.908,2.908,0,0,1-2145.654,2717.863Zm-.876,0a2.052,2.052,0,0,0-2.106-2.166,2.052,2.052,0,0,0-2.106,2.166,2.052,2.052,0,0,0,2.106,2.166A2.052,2.052,0,0,0-2146.53,2717.863Z" transform="translate(2215.838 -2712.938)"/>
      <path id="Tracé_45" data-name="Tracé 45" d="M-2126.9,2715.237v3.455a2,2,0,0,0,.18.988,1.254,1.254,0,0,0,1.066.594,1.254,1.254,0,0,0,1.066-.594,2,2,0,0,0,.18-.988v-3.455h.877v3.688a2.123,2.123,0,0,1-.533,1.487,2.091,2.091,0,0,1-1.59.671,2.09,2.09,0,0,1-1.59-.671,2.122,2.122,0,0,1-.533-1.487v-3.688Z" transform="translate(2199.064 -2713.183)"/>
      <path id="Tracé_46" data-name="Tracé 46" d="M-2107.155,2716.264a.911.911,0,0,0-.259-.361.912.912,0,0,0-.619-.206.71.71,0,0,0-.808.688c0,.172.06.473.619.7l.576.232c1.057.43,1.349,1.031,1.349,1.685a1.766,1.766,0,0,1-1.848,1.839,1.678,1.678,0,0,1-1.35-.576,1.858,1.858,0,0,1-.481-1.118l.868-.189a1.237,1.237,0,0,0,.241.731.9.9,0,0,0,.748.344.921.921,0,0,0,.945-.962c0-.585-.447-.825-.825-.98l-.55-.232a1.618,1.618,0,0,1-1.169-1.453,1.548,1.548,0,0,1,1.676-1.513,1.7,1.7,0,0,1,1.152.386,1.953,1.953,0,0,1,.438.576Z" transform="translate(2186.535 -2712.938)"/>
      <path id="Tracé_47" data-name="Tracé 47" d="M-2085.891,2715.237a3.339,3.339,0,0,1,2.132.558,2.839,2.839,0,0,1,1.1,2.313,2.733,2.733,0,0,1-1.152,2.313,3.292,3.292,0,0,1-2.1.55h-1.186v-5.734Zm-.327,4.908h.379a2.48,2.48,0,0,0,1.521-.4,2.021,2.021,0,0,0,.782-1.633,2.044,2.044,0,0,0-.774-1.65,2.571,2.571,0,0,0-1.53-.4h-.379Z" transform="translate(2170.434 -2713.183)"/>
      <path id="Tracé_48" data-name="Tracé 48" d="M-2063.381,2717.863a2.908,2.908,0,0,1-2.983,2.974,2.908,2.908,0,0,1-2.982-2.974,2.908,2.908,0,0,1,2.982-2.974A2.908,2.908,0,0,1-2063.381,2717.863Zm-.877,0a2.052,2.052,0,0,0-2.106-2.166,2.052,2.052,0,0,0-2.106,2.166,2.052,2.052,0,0,0,2.106,2.166A2.052,2.052,0,0,0-2064.257,2717.863Z" transform="translate(2157.946 -2712.938)"/>
      <path id="Tracé_49" data-name="Tracé 49" d="M-2045.508,2720.052v-6.12l4.16,4.358v-3.972h.877v6.086l-4.161-4.358v4.006Z" transform="translate(2141.172 -2712.264)"/>
      <path id="Tracé_50" data-name="Tracé 50" d="M-2023.875,2720.052v-6.12l4.161,4.358v-3.972h.877v6.086l-4.161-4.358v4.006Z" transform="translate(2125.949 -2712.264)"/>
      <path id="Tracé_51" data-name="Tracé 51" d="M-1999.079,2716.062h-2.286v1.453h2.218v.824h-2.218v1.805h2.286v.825h-3.164v-5.734h3.164Z" transform="translate(2110.727 -2713.183)"/>
      <path id="Tracé_52" data-name="Tracé 52" d="M-1980.108,2715.237v4.908h1.685v.825h-2.562v-5.734Z" transform="translate(2095.769 -2713.183)"/>
      <path id="Tracé_53" data-name="Tracé 53" d="M-1966.4,2716.062h-2.286v1.453h2.218v.824h-2.218v1.805h2.286v.825h-3.164v-5.734h3.164Z" transform="translate(2087.729 -2713.183)"/>
      <path id="Tracé_54" data-name="Tracé 54" d="M-1946.644,2716.264a.909.909,0,0,0-.258-.361.913.913,0,0,0-.619-.206.711.711,0,0,0-.808.688c0,.172.06.473.619.7l.576.232c1.057.43,1.35,1.031,1.35,1.685a1.767,1.767,0,0,1-1.848,1.839,1.677,1.677,0,0,1-1.349-.576,1.854,1.854,0,0,1-.482-1.118l.868-.189a1.237,1.237,0,0,0,.241.731.9.9,0,0,0,.748.344.921.921,0,0,0,.946-.962c0-.585-.447-.825-.825-.98l-.55-.232a1.618,1.618,0,0,1-1.169-1.453,1.548,1.548,0,0,1,1.676-1.513,1.7,1.7,0,0,1,1.152.386,1.952,1.952,0,0,1,.438.576Z" transform="translate(2073.588 -2712.938)"/>
      <path id="Tracé_55" data-name="Tracé 55" d="M-1934.528,2719.949l1.2-6.163,1.994,4.453,2.011-4.453,1.083,6.163h-.894l-.585-3.455-1.667,3.721-1.65-3.73-.6,3.464Z" transform="translate(2063.079 -2712.161)"/>
      <path id="Tracé_56" data-name="Tracé 56" d="M-1908.363,2715.237v5.734h-.877v-5.734Z" transform="translate(2045.284 -2713.183)"/>
      <path id="Tracé_57" data-name="Tracé 57" d="M-1900.765,2715.237v4.908h1.685v.825h-2.561v-5.734Z" transform="translate(2039.938 -2713.183)"/>
      <path id="Tracé_58" data-name="Tracé 58" d="M-1887.053,2716.062h-2.286v1.453h2.217v.824h-2.217v1.805h2.286v.825h-3.163v-5.734h3.163Z" transform="translate(2031.898 -2713.183)"/>
    </g>
    <g id="Groupe_8" data-name="Groupe 8" transform="translate(-2422.951 2483.316)">
      <g id="Groupe_7" data-name="Groupe 7">
        <path id="Tracé_59" data-name="Tracé 59" d="M-2422.951,2510.8h17.411l5.745,21.472c.593,2.371,1.186,4.741,1.687,6.26h.413c.567-1.815,1.2-4.333,1.752-6.26l5.473-21.472h17.41l-17.755,45.9h-14.314Z" transform="translate(2422.951 -2502.655)"/>
        <path id="Tracé_60" data-name="Tracé 60" d="M-2192.282,2523.917c-3.922,3.991-10.322,7.363-19.062,7.363s-15.139-3.372-19.062-7.363a23.4,23.4,0,0,1-6.4-16.653,23.349,23.349,0,0,1,6.4-16.584c3.922-3.991,10.322-7.363,19.062-7.363s15.14,3.372,19.062,7.363a23.35,23.35,0,0,1,6.4,16.584A23.4,23.4,0,0,1-2192.282,2523.917Zm-25.048-23.466a10.3,10.3,0,0,0-2.615,6.881,9.75,9.75,0,0,0,2.615,6.813,8.348,8.348,0,0,0,5.987,2.34,8.35,8.35,0,0,0,5.987-2.34,9.618,9.618,0,0,0,2.615-6.813,9.336,9.336,0,0,0-2.615-6.881,8.307,8.307,0,0,0-5.987-2.34A7.964,7.964,0,0,0-2217.331,2500.451Z" transform="translate(2291.967 -2483.316)" fill="#f4d031"/>
        <path id="Tracé_61" data-name="Tracé 61" d="M-2052.4,2510.8h18.856l3.615,7.545c.593,1.185.889,2.074,1.2,2.778h.344c.528-1.3.935-2.111,1.417-3.074l3.194-7.248h18.855l-14.382,21.47,16.378,24.43h-18.993l-5.052-10.5c-.3-.593-.593-1.186-1.142-2.093h-.482c-.451.907-1.044,2.093-1.34,2.686l-5.06,9.907h-18.994l16.035-24.43Z" transform="translate(2163.319 -2502.655)"/>
      </g>
    </g>
    <g id="Groupe_9" data-name="Groupe 9" transform="translate(-2369.685 2527.723)">
      <path id="Tracé_62" data-name="Tracé 62" d="M-2219.757,2647.322c-10.37,0-18.354-4.99-23.444-9.487l4.121-4.664c4.807,4.247,12.672,9.029,22.834,7.7l.811,6.17A33.222,33.222,0,0,1-2219.757,2647.322Z" transform="translate(2243.201 -2633.171)" fill="#f15d5b"/>
    </g>
  </g>
</svg>
