<svg xmlns="http://www.w3.org/2000/svg" xmlns:xlink="http://www.w3.org/1999/xlink" width="1440" height="177" viewBox="0 0 1440 177">
  <defs>
    <filter id="Fond" x="-18" y="-15" width="1476" height="213" filterUnits="userSpaceOnUse">
      <feOffset dy="3" input="SourceAlpha"/>
      <feGaussianBlur stdDeviation="6" result="blur"/>
      <feFlood flood-opacity="0.161"/>
      <feComposite operator="in" in2="blur"/>
      <feComposite in="SourceGraphic"/>
    </filter>
    <clipPath id="clip-path">
      <g transform="matrix(1, 0, 0, 1, 0, 0)" filter="url(#Fond)">
        <rect id="Fond-2" data-name="Fond" width="1440" height="177" transform="translate(0 100.85)" fill="#fff"/>
      </g>
    </clipPath>
    <filter id="Fond-3" x="-18" y="-15" width="1476" height="213" filterUnits="userSpaceOnUse">
      <feOffset dy="3" input="SourceAlpha"/>
      <feGaussianBlur stdDeviation="6" result="blur-2"/>
      <feFlood flood-opacity="0.161"/>
      <feComposite operator="in" in2="blur-2"/>
      <feComposite in="SourceGraphic"/>
    </filter>
  </defs>
  <g id="Groupe_de_masques_2" data-name="Groupe de masques 2" transform="translate(0 -100.851)" clip-path="url(#clip-path)">
    <g id="Rectangle_99" data-name="Rectangle 99" transform="translate(0 6.851)" fill="#fff" stroke="#707070" stroke-width="1">
      <rect width="1659" height="414" stroke="none"/>
      <rect x="0.5" y="0.5" width="1658" height="413" fill="none"/>
    </g>
    <g id="Groupe_85" data-name="Groupe 85">
      <g transform="matrix(1, 0, 0, 1, 0, 100.85)" filter="url(#Fond-3)">
        <rect id="Fond-4" data-name="Fond" width="1440" height="177" fill="#fff"/>
      </g>
      <g id="Groupe_73" data-name="Groupe 73" transform="translate(-5054.536 -2037.787) rotate(-86)">
        <path id="Tracé_66" data-name="Tracé 66" d="M-1746.333,5776.332a176.158,176.158,0,0,1-125.384-51.936l87.834-87.834a52.756,52.756,0,0,0,37.549,15.553,52.756,52.756,0,0,0,37.549-15.553,52.756,52.756,0,0,0,15.553-37.549,52.757,52.757,0,0,0-15.553-37.55l87.834-87.834a176.155,176.155,0,0,1,51.935,125.384A176.158,176.158,0,0,1-1620.95,5724.4,176.158,176.158,0,0,1-1746.333,5776.332Z" transform="translate(-4319.835 11039.79) rotate(-172)" fill="#2587db"/>
      </g>
      <g id="Groupe_74" data-name="Groupe 74" transform="matrix(0.208, 0.978, -0.978, 0.208, 7422.052, 824.19)">
        <path id="Tracé_66-2" data-name="Tracé 66" d="M-1746.333,5776.332a176.158,176.158,0,0,1-125.384-51.936l87.834-87.834a52.756,52.756,0,0,0,37.549,15.553,52.756,52.756,0,0,0,37.549-15.553,52.756,52.756,0,0,0,15.553-37.549,52.757,52.757,0,0,0-15.553-37.55l87.834-87.834a176.155,176.155,0,0,1,51.935,125.384A176.158,176.158,0,0,1-1620.95,5724.4,176.158,176.158,0,0,1-1746.333,5776.332Z" transform="translate(-4319.835 11039.79) rotate(-172)" fill="#2587db"/>
      </g>
    </g>
  </g>
</svg>
