<svg xmlns="http://www.w3.org/2000/svg" width="137.426" height="129.44" viewBox="0 0 137.426 129.44">
  <path id="Cercle" d="M-2116.652,2592.886c-10.585,10.771-27.856,19.871-51.442,19.871s-40.856-9.1-51.44-19.871c-9.657-9.843-17.272-25.071-17.272-44.942,0-19.685,7.615-34.913,17.272-44.756,10.584-10.771,27.856-19.871,51.44-19.871s40.857,9.1,51.442,19.871c9.657,9.843,17.271,25.071,17.271,44.756C-2099.38,2567.815-2106.995,2583.043-2116.652,2592.886Zm-67.6-63.327c-4.457,4.643-7.057,11.885-7.057,18.57,0,7.058,2.6,13.929,7.057,18.386a22.533,22.533,0,0,0,16.156,6.314,22.532,22.532,0,0,0,16.157-6.314,25.958,25.958,0,0,0,7.057-18.386c0-7.8-2.6-14.3-7.057-18.57a22.41,22.41,0,0,0-16.157-6.314C-2176.078,2523.244-2181.278,2526.4-2184.25,2529.559Z" transform="translate(2236.806 -2483.316)" fill="#f4d031"/>
</svg>
