<svg xmlns="http://www.w3.org/2000/svg" width="130.789" height="145" viewBox="0 0 130.789 145">
  <g id="Logo" transform="translate(2356.133 -2483.316)">
    <g id="Groupe_8" data-name="Groupe 8" transform="translate(-2351.44 2483.316)">
      <g id="Groupe_7" data-name="Groupe 7" transform="translate(0)">
        <path id="Tracé_60" data-name="Tracé 60" d="M-2126.558,2583.852c-9.712,9.884-25.559,18.233-47.2,18.233s-37.488-8.349-47.2-18.233c-8.861-9.031-15.848-23-15.848-41.237,0-18.063,6.987-32.035,15.848-41.066,9.712-9.883,25.56-18.232,47.2-18.232s37.489,8.35,47.2,18.232c8.861,9.031,15.847,23,15.847,41.066C-2110.711,2560.848-2117.7,2574.82-2126.558,2583.852Zm-62.025-58.106c-4.089,4.26-6.475,10.905-6.475,17.04,0,6.476,2.386,12.78,6.475,16.87a20.675,20.675,0,0,0,14.824,5.794,20.674,20.674,0,0,0,14.825-5.794,23.816,23.816,0,0,0,6.476-16.87c0-7.157-2.386-13.121-6.476-17.04a20.564,20.564,0,0,0-14.825-5.794C-2181.085,2519.952-2185.856,2522.849-2188.583,2525.746Z" transform="translate(2236.806 -2483.316)" fill="#f4d031"/>
      </g>
    </g>
    <g id="Groupe_9" data-name="Groupe 9" transform="translate(-2356.133 2593.276)">
      <path id="Tracé_62" data-name="Tracé 62" d="M-2185.149,2668.211c-25.677,0-45.448-12.356-58.052-23.492l10.2-11.549c11.9,10.517,31.377,22.358,56.541,19.056l2.007,15.278A82.176,82.176,0,0,1-2185.149,2668.211Z" transform="translate(2243.201 -2633.171)" fill="#f15d5b"/>
    </g>
  </g>
</svg>
