<svg xmlns="http://www.w3.org/2000/svg" width="1841.404" height="1865.554" viewBox="0 0 1841.404 1865.554">
  <g id="Motifs" transform="translate(227.729 -628.318)">
    <g id="Groupe_14" data-name="Groupe 14" transform="translate(1863.81 -3672.378)">
      <path id="Tracé_66" data-name="Tracé 66" d="M-1746.333,5776.332a176.158,176.158,0,0,1-125.384-51.936l87.834-87.834a52.756,52.756,0,0,0,37.549,15.553,52.756,52.756,0,0,0,37.549-15.553,52.756,52.756,0,0,0,15.553-37.549,52.757,52.757,0,0,0-15.553-37.55l87.834-87.834a176.155,176.155,0,0,1,51.935,125.384A176.158,176.158,0,0,1-1620.95,5724.4,176.158,176.158,0,0,1-1746.333,5776.332Z" fill="#2587db"/>
    </g>
    <g id="Groupe_15" data-name="Groupe 15" transform="translate(7087.304 2923.367) rotate(90)">
      <path id="Tracé_66-2" data-name="Tracé 66" d="M-1727.84,5820.979a202.141,202.141,0,0,1-143.877-59.6l100.79-100.789a60.537,60.537,0,0,0,43.088,17.847,60.538,60.538,0,0,0,43.088-17.847,60.538,60.538,0,0,0,17.847-43.088,60.54,60.54,0,0,0-17.847-43.088l100.79-100.789a202.139,202.139,0,0,1,59.6,143.877,202.14,202.14,0,0,1-59.6,143.877A202.141,202.141,0,0,1-1727.84,5820.979Z" fill="#2587db"/>
    </g>
    <g id="Groupe_12" data-name="Groupe 12" transform="translate(2505.271 -3850.682)">
      <path id="Tracé_65" data-name="Tracé 65" d="M-2443.636,5057.729a287.647,287.647,0,0,1-112.665-22.781,288.273,288.273,0,0,1-91.946-61.972,288.277,288.277,0,0,1-61.972-91.947A287.648,287.648,0,0,1-2733,4768.364a287.648,287.648,0,0,1,22.781-112.665,288.277,288.277,0,0,1,61.972-91.947,288.273,288.273,0,0,1,91.946-61.972A287.655,287.655,0,0,1-2443.636,4479a287.654,287.654,0,0,1,112.665,22.781,288.277,288.277,0,0,1,91.947,61.972,288.277,288.277,0,0,1,61.972,91.947,287.652,287.652,0,0,1,22.781,112.665,287.652,287.652,0,0,1-22.781,112.665,288.277,288.277,0,0,1-61.972,91.947,288.277,288.277,0,0,1-91.947,61.972A287.645,287.645,0,0,1-2443.636,5057.729Zm0-376.021a86.755,86.755,0,0,0-86.657,86.657,86.756,86.756,0,0,0,86.657,86.658,86.755,86.755,0,0,0,86.657-86.658A86.755,86.755,0,0,0-2443.636,4681.707Z" fill="#f15d5b"/>
    </g>
    <g id="Groupe_13" data-name="Groupe 13" transform="translate(3952.046 -2370.658)">
      <path id="Tracé_65-2" data-name="Tracé 65" d="M-2540.235,4864.53a191.62,191.62,0,0,1-75.053-15.177,192.026,192.026,0,0,1-61.252-41.283,192.041,192.041,0,0,1-41.283-61.252A191.62,191.62,0,0,1-2733,4671.765a191.622,191.622,0,0,1,15.176-75.054,192.045,192.045,0,0,1,41.283-61.251,192.042,192.042,0,0,1,61.252-41.283A191.62,191.62,0,0,1-2540.235,4479a191.62,191.62,0,0,1,75.054,15.176,192.042,192.042,0,0,1,61.252,41.283,192.05,192.05,0,0,1,41.284,61.251,191.63,191.63,0,0,1,15.176,75.054,191.628,191.628,0,0,1-15.176,75.054,192.047,192.047,0,0,1-41.284,61.252,192.026,192.026,0,0,1-61.252,41.283A191.62,191.62,0,0,1-2540.235,4864.53Zm0-250.493a57.793,57.793,0,0,0-57.728,57.728,57.794,57.794,0,0,0,57.728,57.729,57.794,57.794,0,0,0,57.729-57.729A57.793,57.793,0,0,0-2540.235,4614.037Z" fill="#f4d031"/>
    </g>
  </g>
</svg>
